<svg width="22" height="20" viewBox="0 0 22 20" fill="none" xmlns="http://www.w3.org/2000/svg">
<path d="M8.83341 14.3333V13.25H1.26091L1.25008 17.5833C1.25008 18.7858 2.21425 19.75 3.41675 19.75H18.5834C19.7859 19.75 20.7501 18.7858 20.7501 17.5833V13.25H13.1667V14.3333H8.83341ZM19.6667 4.58333H15.3226V2.41667L13.1559 0.25H8.82258L6.65591 2.41667V4.58333H2.33341C1.14175 4.58333 0.166748 5.55833 0.166748 6.75V10C0.166748 11.2025 1.13091 12.1667 2.33341 12.1667H8.83341V10H13.1667V12.1667H19.6667C20.8584 12.1667 21.8334 11.1917 21.8334 10V6.75C21.8334 5.55833 20.8584 4.58333 19.6667 4.58333ZM13.1667 4.58333H8.83341V2.41667H13.1667V4.58333Z" fill="#C2C2C2"/>
</svg>
