<svg width="16" height="16" viewBox="0 0 16 16" fill="none" xmlns="http://www.w3.org/2000/svg">
<g clip-path="url(#clip0_481_64)">
<path fill-rule="evenodd" clip-rule="evenodd" d="M4.75008 2.37001C4.01074 2.79681 3.3627 3.36505 2.84296 4.04229C2.32323 4.71953 1.94198 5.49251 1.72097 6.3171C1.27464 7.98242 1.50813 9.75684 2.37008 11.25C3.23203 12.7432 4.65184 13.8328 6.31717 14.2791C7.98249 14.7254 9.75691 14.492 11.2501 13.63C11.4217 13.5386 11.6221 13.5174 11.809 13.5709C11.9959 13.6244 12.1547 13.7484 12.252 13.9168C12.3493 14.0851 12.3774 14.2846 12.3304 14.4733C12.2834 14.6619 12.165 14.825 12.0001 14.928C10.4876 15.8008 8.73103 16.1548 6.99853 15.9359C5.26602 15.7169 3.65274 14.9371 2.40491 13.7155C1.15709 12.4939 0.343254 10.8975 0.0876424 9.17C-0.16797 7.44253 0.148675 5.67887 0.989246 4.1482C1.82982 2.61754 3.14815 1.40395 4.74301 0.692676C6.33787 -0.0186003 8.12166 -0.188495 9.82211 0.208922C11.5226 0.606339 13.0463 1.54924 14.1607 2.8937C15.2751 4.23817 15.919 5.91035 15.9941 7.65501C15.9981 7.68652 16.0001 7.71825 16.0001 7.75001V7.85401C16.0008 7.91734 16.0008 7.98068 16.0001 8.04401V9.25001C16.0005 9.84568 15.8074 10.4253 15.4499 10.9018C15.0925 11.3783 14.59 11.7259 14.018 11.8922C13.446 12.0586 12.8355 12.0347 12.2783 11.8242C11.7211 11.6137 11.2472 11.228 10.9281 10.725C10.2934 11.4069 9.44058 11.8459 8.5168 11.9663C7.59301 12.0866 6.6562 11.8807 5.86798 11.3842C5.07977 10.8876 4.48959 10.1315 4.19927 9.24633C3.90896 8.36114 3.93672 7.40237 4.27776 6.53545C4.6188 5.66853 5.25173 4.94784 6.06735 4.49771C6.88298 4.04759 7.83013 3.89626 8.74541 4.06985C9.66068 4.24343 10.4867 4.73104 11.0809 5.44853C11.675 6.16603 12.0002 7.06842 12.0001 8.00001V9.25001C12.0001 9.58153 12.1318 9.89947 12.3662 10.1339C12.6006 10.3683 12.9186 10.5 13.2501 10.5C13.5816 10.5 13.8996 10.3683 14.134 10.1339C14.3684 9.89947 14.5001 9.58153 14.5001 9.25001V7.86701C14.4771 6.73735 14.16 5.63319 13.5801 4.66345C13.0002 3.69371 12.1776 2.89188 11.1933 2.33704C10.209 1.78221 9.09704 1.49353 7.96716 1.49949C6.83728 1.50544 5.72847 1.80583 4.75008 2.37101V2.37001ZM10.5001 8.00001C10.5001 7.33697 10.2367 6.70109 9.76785 6.23224C9.29901 5.7634 8.66312 5.50001 8.00008 5.50001C7.33704 5.50001 6.70115 5.7634 6.23231 6.23224C5.76347 6.70109 5.50008 7.33697 5.50008 8.00001C5.50008 8.66305 5.76347 9.29894 6.23231 9.76778C6.70115 10.2366 7.33704 10.5 8.00008 10.5C8.66312 10.5 9.29901 10.2366 9.76785 9.76778C10.2367 9.29894 10.5001 8.66305 10.5001 8.00001Z" fill="#3D3D3D"/>
</g>
<defs>
<clipPath id="clip0_481_64">
<rect width="16" height="16" fill="white"/>
</clipPath>
</defs>
</svg>
